<svg width="90" height="71" viewBox="0 0 90 71" fill="none" xmlns="http://www.w3.org/2000/svg">
<g id="&#208;&#161;&#208;&#179;&#209;&#128;&#209;&#131;&#208;&#191;&#208;&#191;&#208;&#184;&#209;&#128;&#208;&#190;&#208;&#178;&#208;&#176;&#209;&#130;&#209;&#140; 87">
<path id="&#208;&#159;&#209;&#128;&#209;&#143;&#208;&#188;&#208;&#190;&#209;&#131;&#208;&#179;&#208;&#190;&#208;&#187;&#209;&#140;&#208;&#189;&#208;&#184;&#208;&#186; 64" d="M89.03 32.47H0.039978V37.98H89.03V32.47Z" fill="white"/>
<g id="&#208;&#161;&#208;&#179;&#209;&#128;&#209;&#131;&#208;&#191;&#208;&#191;&#208;&#184;&#209;&#128;&#208;&#190;&#208;&#178;&#208;&#176;&#209;&#130;&#209;&#140; 86">
<g id="Clip path group">
<mask id="mask0_1_4096" style="mask-type:luminance" maskUnits="userSpaceOnUse" x="0" y="0" width="90" height="71">
<g id="clippath-10">
<path id="Vector" d="M89.03 0H0V70.45H89.03V0Z" fill="white"/>
</g>
</mask>
<g mask="url(#mask0_1_4096)">
<g id="Group">
<g id="&#208;&#161;&#208;&#179;&#209;&#128;&#209;&#131;&#208;&#191;&#208;&#191;&#208;&#184;&#209;&#128;&#208;&#190;&#208;&#178;&#208;&#176;&#209;&#130;&#209;&#140; 85">
<path id="&#208;&#154;&#208;&#190;&#208;&#189;&#209;&#130;&#209;&#131;&#209;&#128; 59" d="M2.53003 37.45L0 32.5601C0.35 32.3801 28.7 17.48 28.7 0.0100098H34.2C34.2 5.00001 32.46 10.11 29.01 15.21C25.94 19.59 22.27 23.52 18.12 26.9C13.28 30.93 8.06002 34.47 2.52002 37.46" fill="white"/>
<path id="&#208;&#154;&#208;&#190;&#208;&#189;&#209;&#130;&#209;&#131;&#209;&#128; 60" d="M34.2 70.45H28.7C28.7 52.96 0.29 38.05 0 37.9L2.53003 33.01C8.07003 36 13.29 39.5399 18.13 43.5699C22.28 46.9499 25.95 50.88 29.02 55.26C32.46 60.36 34.21 65.47 34.21 70.46" fill="white"/>
</g>
</g>
</g>
</g>
</g>
</g>
</svg>
