<svg width="71" height="90" viewBox="0 0 71 90" fill="none" xmlns="http://www.w3.org/2000/svg">
<g id="&#208;&#161;&#208;&#179;&#209;&#128;&#209;&#131;&#208;&#191;&#208;&#191;&#208;&#184;&#209;&#128;&#208;&#190;&#208;&#178;&#208;&#176;&#209;&#130;&#209;&#140; 121">
<path id="&#208;&#159;&#209;&#128;&#209;&#143;&#208;&#188;&#208;&#190;&#209;&#131;&#208;&#179;&#208;&#190;&#208;&#187;&#209;&#140;&#208;&#189;&#208;&#184;&#208;&#186; 64-4" d="M38.4399 0.700195H32.9299V89.6899H38.4399V0.700195Z" fill="#FFF700"/>
<g id="&#208;&#161;&#208;&#179;&#209;&#128;&#209;&#131;&#208;&#191;&#208;&#191;&#208;&#184;&#209;&#128;&#208;&#190;&#208;&#178;&#208;&#176;&#209;&#130;&#209;&#140; 86-4">
<g id="Clip path group">
<mask id="mask0_1_4232" style="mask-type:luminance" maskUnits="userSpaceOnUse" x="0" y="0" width="71" height="90">
<g id="clippath-15">
<path id="Vector" d="M70.8999 0.700195H0.449951V89.73H70.8999V0.700195Z" fill="white"/>
</g>
</mask>
<g mask="url(#mask0_1_4232)">
<g id="Group">
<g id="&#208;&#161;&#208;&#179;&#209;&#128;&#209;&#131;&#208;&#191;&#208;&#191;&#208;&#184;&#209;&#128;&#208;&#190;&#208;&#178;&#208;&#176;&#209;&#130;&#209;&#140; 85-4">
<path id="&#208;&#154;&#208;&#190;&#208;&#189;&#209;&#130;&#209;&#131;&#209;&#128; 59-4" d="M37.8999 87.2002L33.01 89.73C32.83 89.38 17.93 61.0298 0.459961 61.0298V55.5298C5.44996 55.5298 10.5599 57.2702 15.6599 60.7202C20.0399 63.7902 23.9701 67.4599 27.3501 71.6099C31.3801 76.4499 34.9199 81.67 37.9099 87.21" fill="#FFF700"/>
<path id="&#208;&#154;&#208;&#190;&#208;&#189;&#209;&#130;&#209;&#131;&#209;&#128; 60-4" d="M70.8999 55.5298V61.0298C53.4099 61.0298 38.5001 89.44 38.3501 89.73L33.46 87.2002C36.45 81.6602 39.99 76.4401 44.02 71.6001C47.4 67.4501 51.33 63.78 55.71 60.71C60.81 57.27 65.9199 55.52 70.9099 55.52" fill="#FFF700"/>
</g>
</g>
</g>
</g>
</g>
</g>
</svg>
