<svg width="90" height="71" viewBox="0 0 90 71" fill="none" xmlns="http://www.w3.org/2000/svg">
<g id="&#208;&#161;&#208;&#179;&#209;&#128;&#209;&#131;&#208;&#191;&#208;&#191;&#208;&#184;&#209;&#128;&#208;&#190;&#208;&#178;&#208;&#176;&#209;&#130;&#209;&#140; 88">
<path id="&#208;&#159;&#209;&#128;&#209;&#143;&#208;&#188;&#208;&#190;&#209;&#131;&#208;&#179;&#208;&#190;&#208;&#187;&#209;&#140;&#208;&#189;&#208;&#184;&#208;&#186; 64-2" d="M88.99 32.47H0V37.98H88.99V32.47Z" fill="white"/>
<g id="&#208;&#161;&#208;&#179;&#209;&#128;&#209;&#131;&#208;&#191;&#208;&#191;&#208;&#184;&#209;&#128;&#208;&#190;&#208;&#178;&#208;&#176;&#209;&#130;&#209;&#140; 86-2">
<g id="Clip path group">
<mask id="mask0_1_4106" style="mask-type:luminance" maskUnits="userSpaceOnUse" x="0" y="0" width="90" height="71">
<g id="clippath-11">
<path id="Vector" d="M89.03 0H0V70.45H89.03V0Z" fill="white"/>
</g>
</mask>
<g mask="url(#mask0_1_4106)">
<g id="Group">
<g id="&#208;&#161;&#208;&#179;&#209;&#128;&#209;&#131;&#208;&#191;&#208;&#191;&#208;&#184;&#209;&#128;&#208;&#190;&#208;&#178;&#208;&#176;&#209;&#130;&#209;&#140; 85-2">
<path id="&#208;&#154;&#208;&#190;&#208;&#189;&#209;&#130;&#209;&#131;&#209;&#128; 59-2" d="M86.5 33.01L89.03 37.9C88.68 38.08 60.3301 52.98 60.3301 70.45H54.8301C54.8301 65.46 56.57 60.35 60.02 55.25C63.09 50.87 66.7599 46.9401 70.9099 43.5601C75.7499 39.5301 80.97 35.99 86.51 33" fill="white"/>
<path id="&#208;&#154;&#208;&#190;&#208;&#189;&#209;&#130;&#209;&#131;&#209;&#128; 60-2" d="M54.8301 0H60.3301C60.3301 17.49 88.74 32.4 89.03 32.55L86.5 37.4399C80.96 34.4499 75.7399 30.91 70.8999 26.88C66.7499 23.5 63.08 19.5699 60.01 15.1899C56.57 10.0899 54.8201 4.97999 54.8201 -0.0100098" fill="white"/>
</g>
</g>
</g>
</g>
</g>
</g>
</svg>
