<svg width="71" height="90" viewBox="0 0 71 90" fill="none" xmlns="http://www.w3.org/2000/svg">
<g id="&#208;&#161;&#208;&#179;&#209;&#128;&#209;&#131;&#208;&#191;&#208;&#191;&#208;&#184;&#209;&#128;&#208;&#190;&#208;&#178;&#208;&#176;&#209;&#130;&#209;&#140; 120">
<path id="&#208;&#159;&#209;&#128;&#209;&#143;&#208;&#188;&#208;&#190;&#209;&#131;&#208;&#179;&#208;&#190;&#208;&#187;&#209;&#140;&#208;&#189;&#208;&#184;&#208;&#186; 64-3" d="M38.1699 0.0400391H32.6599V89.0298H38.1699V0.0400391Z" fill="#FFF700"/>
<g id="&#208;&#161;&#208;&#179;&#209;&#128;&#209;&#131;&#208;&#191;&#208;&#191;&#208;&#184;&#209;&#128;&#208;&#190;&#208;&#178;&#208;&#176;&#209;&#130;&#209;&#140; 86-3">
<g id="Clip path group">
<mask id="mask0_1_4222" style="mask-type:luminance" maskUnits="userSpaceOnUse" x="0" y="0" width="71" height="90">
<g id="clippath-14">
<path id="Vector" d="M70.6399 0H0.189941V89.0298H70.6399V0Z" fill="white"/>
</g>
</mask>
<g mask="url(#mask0_1_4222)">
<g id="Group">
<g id="&#208;&#161;&#208;&#179;&#209;&#128;&#209;&#131;&#208;&#191;&#208;&#191;&#208;&#184;&#209;&#128;&#208;&#190;&#208;&#178;&#208;&#176;&#209;&#130;&#209;&#140; 85-3">
<path id="&#208;&#154;&#208;&#190;&#208;&#189;&#209;&#130;&#209;&#131;&#209;&#128; 59-3" d="M33.1899 2.52979L38.0801 0C38.2601 0.35 53.1599 28.7002 70.6299 28.7002V34.2002C65.6399 34.2002 60.5299 32.4598 55.4299 29.0098C51.0499 25.9398 47.12 22.2701 43.74 18.1201C39.71 13.2801 36.1699 8.06002 33.1799 2.52002" fill="#FFF700"/>
<path id="&#208;&#154;&#208;&#190;&#208;&#189;&#209;&#130;&#209;&#131;&#209;&#128; 60-3" d="M0.189941 34.2002V28.7002C17.6799 28.7002 32.59 0.29 32.74 0L37.6299 2.52979C34.6399 8.06979 31.1001 13.2899 27.0701 18.1299C23.6901 22.2799 19.7599 25.95 15.3799 29.02C10.2799 32.46 5.16993 34.21 0.179932 34.21" fill="#FFF700"/>
</g>
</g>
</g>
</g>
</g>
</g>
</svg>
