<svg width="41" height="41" viewBox="0 0 41 41" fill="none" xmlns="http://www.w3.org/2000/svg">
<g id="&#208;&#161;&#208;&#179;&#209;&#128;&#209;&#131;&#208;&#191;&#208;&#191;&#208;&#184;&#209;&#128;&#208;&#190;&#208;&#178;&#208;&#176;&#209;&#130;&#209;&#140;_134">
<g id="Group">
<g id="Clip path group">
<mask id="mask0_1_4521" style="mask-type:luminance" maskUnits="userSpaceOnUse" x="0" y="0" width="41" height="41">
<g id="SVGID_00000030461682419012384500000017851846591846038151_">
<path id="Vector" d="M40.3 0H0V40.3H40.3V0Z" fill="white"/>
</g>
</mask>
<g mask="url(#mask0_1_4521)">
<g id="&#208;&#161;&#208;&#179;&#209;&#128;&#209;&#131;&#208;&#191;&#208;&#191;&#208;&#184;&#209;&#128;&#208;&#190;&#208;&#178;&#208;&#176;&#209;&#130;&#209;&#140;_52">
<path id="&#208;&#154;&#208;&#190;&#208;&#189;&#209;&#130;&#209;&#131;&#209;&#128;_48" d="M0 20.3V11.9C0 6.9 3 2.4 7.6 0.7C9 0.2 10.4 0 11.8 0C17.4 0 23 0 28.6 0C31 0 33.4 0.8 35.4 2.2C37.5 3.7 39.1 5.9 39.8 8.4C40.1 9.5 40.3 10.6 40.3 11.7C40.3 17.4 40.3 23.1 40.3 28.7C40.3 31.3 39.4 33.7 37.8 35.7C36.4 37.6 34.4 38.9 32.2 39.7C31.1 40.1 29.9 40.3 28.7 40.3C23 40.3 17.4 40.3 11.7 40.3C6.5 40.3 1.9 36.9 0.5 31.9C0.2 30.8 0 29.7 0 28.6C0 25.8 0 23 0 20.3ZM36.7 20C36.7 17.3 36.7 14.6 36.7 11.9C36.7 11 36.6 10 36.3 9.1C35.2 5.8 32 3.6 28.5 3.6H25C20.6 3.6 16.2 3.6 11.9 3.6C10.2 3.6 8.5 4.1 7.1 5.2C5 6.7 3.7 9.2 3.8 11.8C3.8 17.3 3.8 22.7 3.8 28.2C3.8 29 3.9 29.8 4.1 30.5C4.6 32.4 5.7 34.1 7.3 35.2C8.7 36.2 10.4 36.7 12.1 36.7C17.6 36.7 23 36.7 28.5 36.7C29.1 36.7 29.7 36.6 30.3 36.5C31.8 36.3 33.1 35.6 34.2 34.6C36 33 37 30.8 36.9 28.4C36.7 25.6 36.7 22.8 36.7 20Z" fill="black"/>
<path id="&#208;&#154;&#208;&#190;&#208;&#189;&#209;&#130;&#209;&#131;&#209;&#128;_49" d="M9.79999 20.1C9.79999 14.4 14.4 9.80005 20.1 9.80005C25.8 9.80005 30.4 14.4 30.4 20.1C30.4 25.8 25.8 30.4 20.1 30.4C14.4 30.5 9.79999 25.9 9.79999 20.1ZM13.4 20.1C13.4 23.8 16.4 26.8 20.1 26.8C23.8 26.8 26.8 23.8 26.8 20.1C26.8 16.4 23.8 13.4 20.1 13.4C16.5 13.4 13.4 16.4 13.4 20.1Z" fill="black"/>
<path id="&#208;&#154;&#208;&#190;&#208;&#189;&#209;&#130;&#209;&#131;&#209;&#128;_50" d="M30.9 11.8C29.6 11.8 28.5 10.7 28.5 9.4C28.5 8.1 29.6 7 30.9 7C32.2 7 33.3 8.1 33.3 9.4C33.3 9.5 33.3 9.5 33.3 9.6C33.2 10.8 32.2 11.8 30.9 11.8Z" fill="black"/>
</g>
</g>
</g>
</g>
</g>
</svg>
