<svg width="189" height="95" viewBox="0 0 189 95" fill="none" xmlns="http://www.w3.org/2000/svg">
<g id="&#208;&#161;&#208;&#179;&#209;&#128;&#209;&#131;&#208;&#191;&#208;&#191;&#208;&#184;&#209;&#128;&#208;&#190;&#208;&#178;&#208;&#176;&#209;&#130;&#209;&#140; 20">
<g id="Clip path group">
<mask id="mask0_1_4207" style="mask-type:luminance" maskUnits="userSpaceOnUse" x="0" y="0" width="189" height="95">
<g id="clippath-13">
<path id="Vector" d="M188.43 0.149902H0V94.1499H188.43V0.149902Z" fill="white"/>
</g>
</mask>
<g mask="url(#mask0_1_4207)">
<g id="Group">
<g id="&#208;&#161;&#208;&#179;&#209;&#128;&#209;&#131;&#208;&#191;&#208;&#191;&#208;&#184;&#209;&#128;&#208;&#190;&#208;&#178;&#208;&#176;&#209;&#130;&#209;&#140; 20-2">
<path id="&#208;&#154;&#208;&#190;&#208;&#189;&#209;&#130;&#209;&#131;&#209;&#128; 10" d="M174.17 52.5996H173.41C172.99 52.5996 172.65 52.9396 172.65 53.3596V59.5396C172.74 60.4896 172.46 61.4296 171.88 62.1796C170.6 63.2496 168.74 63.2496 167.45 62.1796C166.87 61.4296 166.59 60.4796 166.68 59.5396V53.3596C166.68 52.9396 166.34 52.5996 165.92 52.5996H165.11C164.69 52.5996 164.35 52.9396 164.35 53.3596V59.6096C164.25 61.1196 164.76 62.5996 165.77 63.7196C168.01 65.6196 171.29 65.6196 173.53 63.7196C174.53 62.5996 175.04 61.1096 174.94 59.6096V53.3596C174.94 52.9396 174.6 52.5996 174.18 52.5996" fill="white"/>
<path id="&#208;&#154;&#208;&#190;&#208;&#189;&#209;&#130;&#209;&#131;&#209;&#128; 11" d="M183.42 53.0496C183.29 52.7796 183.02 52.5996 182.72 52.5996H181.62C181.32 52.5996 181.04 52.7696 180.92 53.0496L175.99 63.9296C175.82 64.3096 175.99 64.7696 176.37 64.9396C176.47 64.9896 176.58 65.0096 176.69 65.0096H177.46C177.76 65.0096 178.04 64.8296 178.16 64.5496L179.22 62.1296C179.22 62.1296 179.28 62.0696 179.32 62.0696H185C185 62.0696 185.08 62.0896 185.1 62.1296L186.16 64.5496C186.28 64.8296 186.56 65.0096 186.86 65.0096H187.66C188.08 65.0096 188.43 64.6696 188.43 64.2496C188.43 64.1396 188.41 64.0296 188.36 63.9296L183.41 53.0496H183.42ZM184.12 60.0196C184.12 60.0196 184.07 60.0696 184.03 60.0696H180.29C180.29 60.0696 180.22 60.0496 180.2 60.0196C180.18 59.9896 180.18 59.9496 180.2 59.9196L182.07 55.6696C182.07 55.6696 182.13 55.5996 182.17 55.6096C182.17 55.6096 182.25 55.6296 182.27 55.6696L184.14 59.9196C184.14 59.9196 184.15 59.9896 184.14 60.0196" fill="white"/>
<path id="&#208;&#154;&#208;&#190;&#208;&#189;&#209;&#130;&#209;&#131;&#209;&#128; 12" d="M63.88 35.9598C62.88 35.2898 61.55 35.4098 60.69 36.2498L40.58 57.9398L40.98 30.2098C41 28.8098 39.88 27.6498 38.48 27.6298C37.08 27.6098 35.93 28.7298 35.9 30.1298L35.49 57.8598L15.9 35.4898C14.92 34.4798 13.31 34.4598 12.31 35.4398C11.3 36.4198 11.28 38.0298 12.26 39.0298L35.4 65.0798L35.3 71.4998C35.3 71.4998 35.27 71.5598 35.24 71.5598C16.97 69.8598 3.53001 53.6598 5.24001 35.3898C6.94001 17.1198 23.14 3.67979 41.41 5.38979C48.78 6.07979 55.7 9.19979 61.09 14.2698C62.11 15.2298 63.72 15.1798 64.68 14.1598C65.64 13.1398 65.59 11.5298 64.57 10.5698C49.16 -3.93021 24.91 -3.1902 10.41 12.2198C-4.09001 27.6298 -3.34998 51.8798 12.06 66.3798C18.38 72.3298 26.53 75.9498 35.18 76.6598C35.21 76.6598 35.23 76.6898 35.23 76.7198L35.02 91.5898C35 92.9898 36.12 94.1498 37.52 94.1698C38.92 94.1898 40.08 93.0698 40.1 91.6698L40.31 76.7998C40.31 76.7998 40.33 76.7498 40.36 76.7398C49.03 76.2898 57.28 72.8998 63.77 67.1298C64.3 66.6498 64.61 65.9698 64.62 65.2498L65 38.2798C65.04 37.3698 64.62 36.4998 63.88 35.9698M40.39 71.5798L40.48 65.1898C40.48 65.1898 59.83 44.2598 59.83 44.3098L59.55 64.0198C59.55 64.0198 59.55 64.0498 59.53 64.0598C54.13 68.5398 47.45 71.1898 40.45 71.6298C40.42 71.6298 40.39 71.6098 40.39 71.5698" fill="#FFF700"/>
<path id="&#208;&#154;&#208;&#190;&#208;&#189;&#209;&#130;&#209;&#131;&#209;&#128; 13" d="M92.01 41.8597C90.9 40.4797 89.53 39.3297 87.97 38.4897C86.13 37.5397 84.08 37.0597 82.01 37.0897C77.08 37.0897 73.01 39.4297 69.98 44.0397C69.23 45.1797 68.73 46.4697 68.51 47.8097C67.59 53.1097 68.86 57.5897 72.23 61.0397C76.28 65.2097 82.55 66.3397 87.8 63.8197C89.39 63.0197 90.83 61.9197 92.02 60.5897V62.6097C92.02 63.6397 92.85 64.4697 93.88 64.4697H94.16C95.19 64.4697 96.02 63.6397 96.02 62.6097V39.7497C96.02 38.6497 95.12 37.7497 94.02 37.7497C92.92 37.7497 92.02 38.6497 92.02 39.7497V41.8497L92.01 41.8597ZM89.35 43.9397C91.26 45.8797 92.29 48.5197 92.22 51.2397C92.25 53.0397 91.8 54.8197 90.94 56.3997C90.08 57.9197 88.82 59.1697 87.29 60.0197C85.76 60.8997 84.02 61.3597 82.25 61.3597C80.52 61.3597 78.82 60.8997 77.33 60.0097C75.8 59.0997 74.53 57.7997 73.67 56.2397C71.86 53.0997 71.85 49.2197 73.66 46.0697C75.38 42.9297 78.69 40.9897 82.27 41.0197C84.93 40.9697 87.5 42.0297 89.34 43.9497" fill="white"/>
<path id="&#208;&#154;&#208;&#190;&#208;&#189;&#209;&#130;&#209;&#131;&#209;&#128; 14" d="M104.2 64.4699H104.53C105.56 64.4699 106.39 63.6399 106.39 62.6099V29.6499C106.39 28.5499 105.49 27.6499 104.39 27.6499H104.34C103.24 27.6499 102.34 28.5499 102.34 29.6499V62.5999C102.34 63.6299 103.17 64.4599 104.2 64.4599" fill="white"/>
<path id="&#208;&#154;&#208;&#190;&#208;&#189;&#209;&#130;&#209;&#131;&#209;&#128; 15" d="M135.27 41.8597C134.16 40.4797 132.79 39.3297 131.23 38.4897C129.39 37.5397 127.34 37.0597 125.27 37.0897C120.36 37.0897 116.3 39.4197 113.28 43.9797C112.51 45.1597 111.99 46.4797 111.76 47.8697C110.87 53.1397 112.14 57.5897 115.49 61.0297C119.54 65.1997 125.81 66.3297 131.06 63.8097C132.65 63.0097 134.08 61.9097 135.28 60.5797V62.5997C135.28 63.6297 136.11 64.4597 137.14 64.4597H137.42C138.45 64.4597 139.28 63.6297 139.28 62.5997V39.7397C139.28 38.6397 138.38 37.7397 137.28 37.7397C136.18 37.7397 135.28 38.6397 135.28 39.7397V41.8397L135.27 41.8597ZM132.61 43.9397C134.52 45.8797 135.55 48.5197 135.48 51.2397C135.51 53.0397 135.06 54.8197 134.2 56.3997C133.34 57.9197 132.08 59.1697 130.55 60.0197C129.02 60.8997 127.28 61.3597 125.51 61.3597C123.78 61.3597 122.08 60.8997 120.59 60.0097C119.05 59.0997 117.79 57.7997 116.93 56.2297C115.12 53.0897 115.11 49.2097 116.92 46.0597C118.65 42.9197 121.95 40.9797 125.54 41.0097C128.2 40.9597 130.77 42.0197 132.61 43.9397Z" fill="white"/>
<path id="&#208;&#154;&#208;&#190;&#208;&#189;&#209;&#130;&#209;&#131;&#209;&#128; 16" d="M153.32 49.0098C151.86 48.3698 150.54 47.4598 149.4 46.3498C148.85 45.7498 148.54 44.9698 148.52 44.1598C148.52 43.2898 148.91 42.4698 149.57 41.8998C150.26 41.2498 151.18 40.8998 152.13 40.9198C153.5 40.9798 154.82 41.4798 155.88 42.3498C156.64 42.9198 157.71 42.8298 158.37 42.1498C159.1 41.3998 159.08 40.1898 158.33 39.4598C158.28 39.4098 158.22 39.3598 158.16 39.3098C156.5 37.9398 154.44 37.1598 152.3 37.0898C150.31 37.0298 148.38 37.7698 146.94 39.1498C145.53 40.4998 144.76 42.3798 144.81 44.3298C144.79 45.8498 145.26 47.3398 146.15 48.5698C147.49 50.1498 149.17 51.4198 151.07 52.2698C152.58 52.9298 153.97 53.8398 155.18 54.9598C155.74 55.6098 156.04 56.4398 156.03 57.2998C156.03 58.3698 155.55 59.3898 154.73 60.0798C153.86 60.8798 152.72 61.3098 151.54 61.2798C150.1 61.2398 148.72 60.6998 147.64 59.7498C146.87 59.1098 145.73 59.1798 145.04 59.9198L144.93 60.0398C144.21 60.7898 144.24 61.9798 144.99 62.6998C145.01 62.7198 145.02 62.7298 145.04 62.7398C145.7 63.2998 146.44 63.7798 147.23 64.1598C148.62 64.8298 150.14 65.1798 151.68 65.1698C153.87 65.2298 155.99 64.3898 157.55 62.8498C159.09 61.3698 159.94 59.3098 159.91 57.1698C159.92 55.6198 159.44 54.1198 158.52 52.8698C157.08 51.2398 155.3 49.9298 153.32 49.0398" fill="white"/>
</g>
</g>
</g>
</g>
</g>
</svg>
