<svg width="256" height="128" viewBox="0 0 256 128" fill="none" xmlns="http://www.w3.org/2000/svg">
<g id="&#208;&#161;&#208;&#179;&#209;&#128;&#209;&#131;&#208;&#191;&#208;&#191;&#208;&#184;&#209;&#128;&#208;&#190;&#208;&#178;&#208;&#176;&#209;&#130;&#209;&#140; 50">
<g id="Clip path group">
<mask id="mask0_1_4263" style="mask-type:luminance" maskUnits="userSpaceOnUse" x="0" y="0" width="256" height="128">
<g id="clippath-18">
<path id="Vector" d="M255.49 0H0V127.45H255.49V0Z" fill="white"/>
</g>
</mask>
<g mask="url(#mask0_1_4263)">
<g id="Group">
<g id="&#208;&#161;&#208;&#179;&#209;&#128;&#209;&#131;&#208;&#191;&#208;&#191;&#208;&#184;&#209;&#128;&#208;&#190;&#208;&#178;&#208;&#176;&#209;&#130;&#209;&#140; 49">
<path id="&#208;&#154;&#208;&#190;&#208;&#189;&#209;&#130;&#209;&#131;&#209;&#128; 41" d="M236.16 71.1099H235.13C234.56 71.1099 234.09 71.5699 234.09 72.1499V80.5298C234.21 81.8098 233.83 83.0999 233.04 84.1099C231.3 85.5599 228.78 85.5599 227.04 84.1099C226.25 83.0899 225.87 81.8098 225.99 80.5298V72.1499C225.99 71.5799 225.53 71.1099 224.95 71.1099H223.85C223.28 71.1099 222.81 71.5699 222.81 72.1499V80.6201C222.67 82.6601 223.37 84.6699 224.74 86.1899C227.78 88.7599 232.23 88.7599 235.26 86.1899C236.62 84.6699 237.31 82.6601 237.18 80.6201V72.1499C237.18 71.5799 236.72 71.1099 236.14 71.1099" fill="#1E1E1E"/>
<path id="&#208;&#154;&#208;&#190;&#208;&#189;&#209;&#130;&#209;&#131;&#209;&#128; 42" d="M248.69 71.7202C248.52 71.3502 248.15 71.1099 247.75 71.1099H246.26C245.85 71.1099 245.49 71.3502 245.32 71.7202L238.64 86.4702C238.4 86.9902 238.64 87.6098 239.16 87.8398C239.29 87.8998 239.44 87.9302 239.59 87.9302H240.63C241.04 87.9302 241.41 87.6901 241.58 87.3101L243.02 84.0298C243.04 83.9798 243.09 83.9399 243.15 83.9399H250.85C250.91 83.9399 250.96 83.9698 250.98 84.0298L252.42 87.3101C252.58 87.6901 252.96 87.9302 253.37 87.9302H254.46C255.03 87.9302 255.5 87.4701 255.5 86.8901C255.5 86.7401 255.47 86.6 255.41 86.46L248.71 71.71L248.69 71.7202ZM249.64 81.1802C249.64 81.1802 249.57 81.25 249.52 81.25H244.45C244.45 81.25 244.36 81.2302 244.33 81.1802C244.3 81.1402 244.3 81.09 244.32 81.04L246.85 75.2798C246.87 75.2298 246.92 75.1899 246.98 75.1899C247.04 75.1899 247.09 75.2198 247.11 75.2798L249.64 81.04C249.64 81.04 249.66 81.1402 249.63 81.1802" fill="#1E1E1E"/>
<path id="&#208;&#154;&#208;&#190;&#208;&#189;&#209;&#130;&#209;&#131;&#209;&#128; 43" d="M86.61 48.5499C85.26 47.6399 83.46 47.8001 82.29 48.9401L55.02 78.3502L55.56 40.7501C55.59 38.8501 54.07 37.2801 52.17 37.2501C52.17 37.2501 52.17 37.2501 52.16 37.2501C50.26 37.2201 48.69 38.74 48.67 40.65L48.13 78.2404L21.57 47.9C20.24 46.54 18.06 46.5002 16.7 47.8302C15.34 49.1602 15.3 51.3403 16.63 52.7003L47.99 88.0299L47.87 96.7301C47.87 96.7301 47.83 96.8102 47.79 96.8102C23.01 94.5002 4.8 72.5402 7.11 47.7702C9.42 22.9902 31.38 4.77998 56.15 7.08998C66.14 8.01998 75.53 12.26 82.84 19.13C84.23 20.43 86.41 20.3701 87.71 18.9801C89.01 17.5901 88.95 15.41 87.56 14.11C66.66 -5.55 33.79 -4.55002 14.12 16.34C-5.53999 37.24 -4.54001 70.1099 16.35 89.7799C24.92 97.8399 35.97 102.76 47.69 103.72C47.73 103.72 47.76 103.76 47.76 103.8L47.47 123.96C47.43 125.86 48.93 127.44 50.83 127.49C52.73 127.53 54.31 126.03 54.36 124.13C54.36 124.11 54.36 124.09 54.36 124.07L54.65 103.91C54.65 103.91 54.68 103.84 54.72 103.84C66.47 103.23 77.67 98.6302 86.46 90.8102C87.18 90.1602 87.6 89.2299 87.6 88.2599L88.12 51.6901C88.17 50.4601 87.6 49.2802 86.6 48.5602M54.75 96.84L54.87 88.1803C54.87 88.1803 81.11 59.8003 81.11 59.8703L80.73 86.59C80.73 86.59 80.72 86.64 80.7 86.65C73.38 92.73 64.32 96.3201 54.83 96.9201C54.79 96.9201 54.75 96.8902 54.75 96.8502" fill="#1E1E1E"/>
<path id="&#208;&#154;&#208;&#190;&#208;&#189;&#209;&#130;&#209;&#131;&#209;&#128; 44" d="M124.75 56.5496C123.25 54.6696 121.38 53.1197 119.27 51.9797C116.77 50.6997 114 50.0398 111.19 50.0798C104.51 50.0798 98.98 53.2598 94.88 59.4998C93.87 61.0498 93.19 62.7896 92.88 64.6096C91.64 71.7996 93.35 77.8596 97.92 82.5496C103.41 88.2096 111.91 89.7296 119.03 86.3196C121.19 85.2296 123.13 83.7397 124.75 81.9397V84.6799C124.75 86.0699 125.88 87.1997 127.27 87.2097H127.65C129.04 87.2097 130.17 86.0797 130.17 84.6897V53.6897C130.17 52.1897 128.96 50.9797 127.46 50.9797C125.96 50.9797 124.75 52.1897 124.75 53.6897V56.5398V56.5496ZM121.15 59.3796C123.74 62.0196 125.14 65.5895 125.05 69.2795C125.09 71.7195 124.49 74.1298 123.31 76.2698C122.15 78.3298 120.43 80.0297 118.36 81.1697C116.28 82.3597 113.93 82.99 111.53 82.99C109.18 82.99 106.87 82.3599 104.86 81.1599C102.78 79.9299 101.06 78.1598 99.9 76.0398C97.44 71.7798 97.43 66.5198 99.88 62.2498C102.22 57.9898 106.71 55.3597 111.56 55.3997C115.17 55.3297 118.65 56.7699 121.15 59.3699" fill="#1E1E1E"/>
<path id="&#208;&#154;&#208;&#190;&#208;&#189;&#209;&#130;&#209;&#131;&#209;&#128; 45" d="M141.28 87.2202H141.72C143.11 87.2202 144.24 86.0902 144.24 84.7002V40.0098C144.24 38.5098 143.03 37.2998 141.53 37.2998H141.46C139.96 37.2998 138.75 38.5098 138.75 40.0098V84.6899C138.75 86.0799 139.88 87.21 141.27 87.21" fill="#1E1E1E"/>
<path id="&#208;&#154;&#208;&#190;&#208;&#189;&#209;&#130;&#209;&#131;&#209;&#128; 46" d="M183.41 56.5496C181.91 54.6696 180.04 53.1197 177.93 51.9797C175.43 50.6997 172.66 50.0398 169.85 50.0798C163.2 50.0798 157.69 53.2297 153.59 59.4197C152.54 61.0197 151.84 62.82 151.52 64.7C150.31 71.85 152.03 77.8796 156.58 82.5496C162.07 88.2096 170.57 89.7296 177.69 86.3196C179.85 85.2296 181.79 83.7497 183.41 81.9397V84.6799C183.41 86.0699 184.54 87.2 185.93 87.2H186.31C187.7 87.2 188.83 86.0699 188.83 84.6799V53.6799C188.83 52.1799 187.62 50.97 186.12 50.97C184.62 50.97 183.41 52.1799 183.41 53.6799V56.5295V56.5496ZM179.81 59.3796C182.4 62.0196 183.8 65.5895 183.71 69.2795C183.75 71.7195 183.15 74.1298 181.97 76.2698C180.81 78.3298 179.09 80.0297 177.02 81.1697C174.94 82.3597 172.59 82.99 170.19 82.99C167.84 82.99 165.53 82.3599 163.52 81.1599C161.44 79.9299 159.72 78.1598 158.56 76.0398C156.1 71.7798 156.09 66.5295 158.53 62.2595C160.87 57.9995 165.36 55.3699 170.21 55.4099C173.82 55.3399 177.3 56.7796 179.8 59.3796" fill="#1E1E1E"/>
<path id="&#208;&#154;&#208;&#190;&#208;&#189;&#209;&#130;&#209;&#131;&#209;&#128; 47" d="M207.88 66.2403C205.91 65.3703 204.11 64.1399 202.57 62.6299C201.83 61.8199 201.4 60.7602 201.38 59.6602C201.38 58.4802 201.9 57.3602 202.81 56.6002C203.74 55.7202 204.99 55.2401 206.28 55.2701C208.14 55.3501 209.92 56.03 211.36 57.21C212.4 57.98 213.84 57.86 214.74 56.94C215.73 55.92 215.7 54.2801 214.68 53.2901C214.61 53.2201 214.53 53.1499 214.45 53.0899C212.2 51.2399 209.41 50.1699 206.5 50.0699C203.8 49.9899 201.18 50.9899 199.24 52.8599C197.33 54.6899 196.29 57.2399 196.35 59.8799C196.32 61.9399 196.96 63.9602 198.16 65.6402C199.35 67.2902 201.59 68.98 204.83 70.65C207.73 72.13 209.6 73.3501 210.4 74.2901C211.16 75.1701 211.57 76.3 211.56 77.46C211.56 78.92 210.91 80.29 209.8 81.23C208.62 82.32 207.07 82.8999 205.47 82.8599C203.52 82.8099 201.65 82.0698 200.19 80.7798C199.14 79.9098 197.6 80.0101 196.67 81.0001L196.52 81.1602C195.55 82.1802 195.59 83.7898 196.61 84.7598C196.63 84.7798 196.65 84.7999 196.67 84.8199C197.57 85.5899 198.57 86.2303 199.63 86.7403C201.51 87.6503 203.57 88.1202 205.66 88.1202C208.63 88.2002 211.51 87.0603 213.62 84.9703C215.71 82.9603 216.86 80.1701 216.81 77.2701C216.83 75.1801 216.17 73.13 214.93 71.44C213.68 69.77 211.31 68.0203 207.88 66.2403Z" fill="#1E1E1E"/>
</g>
</g>
</g>
</g>
</g>
</svg>
