<svg width="400" height="532" viewBox="0 0 400 532" fill="none" xmlns="http://www.w3.org/2000/svg">
<mask id="mask0_1_1964" style="mask-type:luminance" maskUnits="userSpaceOnUse" x="0" y="0" width="400" height="532">
<path d="M400 0H0V531.13H400V0Z" fill="white"/>
</mask>
<g mask="url(#mask0_1_1964)">
<path d="M216.68 2.12025C270.26 2.06025 321.92 22.1099 361.44 58.2999L361.47 58.3302C367.65 64.0002 368.25 73.5401 362.83 79.9401V79.9601L362.44 80.3903C356.61 86.7603 346.73 87.2 340.36 81.38C306.6 50.47 262.47 33.3403 216.7 33.3903C115.63 33.3903 33.4 115.62 33.4 216.69C33.4 311.32 106.95 391.27 201.07 399.27V365.45L70.79 222.89C64.71 216.79 64.72 206.91 70.81 200.82H70.82C76.92 194.71 86.82 194.71 92.93 200.82L92.98 200.88L201.07 320.8V170.53C201.07 161.9 208.08 154.9 216.71 154.91C225.34 154.91 232.33 161.91 232.33 170.53V320.85L339.84 201.5C342.77 198.57 346.75 196.92 350.89 196.92C353.91 196.92 356.87 197.8 359.41 199.44C361.71 200.95 363.55 203.06 364.74 205.55C365.92 208.01 366.53 210.71 366.52 213.43V363.4C366.54 367.81 364.72 372.03 361.49 375.03C325.93 407.58 280.41 427.18 232.33 430.64V512.21C232.33 520.84 225.32 527.84 216.69 527.83C208.06 527.83 201.07 520.83 201.07 512.21V430.64C160.87 427.73 122.31 413.51 89.85 389.61C68.55 373.95 50.3 354.52 36.01 332.29C13.85 297.82 2.07998 257.69 2.12998 216.7C2.12998 98.3903 98.38 2.14027 216.69 2.14027L216.68 2.12025ZM359.39 60.4904C320.43 24.8204 269.51 5.06025 216.68 5.12025C100.03 5.12025 5.11997 100.03 5.11997 216.68C5.11997 333.33 91.76 420.27 202.36 427.7C203.31 427.77 204.04 428.56 204.04 429.51V512.18C204.04 519.16 209.7 524.81 216.68 524.8C223.65 524.8 229.3 519.15 229.3 512.18V429.51C229.3 428.55 230.04 427.76 231 427.7C278.79 424.43 324.06 405.08 359.44 372.8C362.05 370.37 363.52 366.95 363.5 363.39V213.42C363.5 208.63 361.3 204.23 357.77 201.95C355.72 200.62 353.32 199.91 350.87 199.9C347.53 199.9 344.33 201.21 341.96 203.58L229.3 328.64V170.51C229.3 163.53 223.64 157.88 216.66 157.89C209.69 157.89 204.04 163.54 204.04 170.51V328.59L90.74 202.89C85.8 197.99 77.8299 198 72.91 202.91C67.99 207.85 67.99 215.84 72.91 220.78L72.96 220.83L204.05 364.27V400.53C204.05 401.54 203.23 402.36 202.22 402.36C202.17 402.36 202.13 402.36 202.08 402.36C167.14 399.63 133.69 387.07 105.59 366.12C87.31 352.51 71.66 335.67 59.41 316.45C40.41 286.65 30.33 252.03 30.37 216.69C30.37 113.97 113.94 30.3903 216.67 30.3903C263.19 30.3403 308.04 47.7403 342.35 79.1603C347.45 83.8303 355.35 83.5304 360.08 78.4904L360.19 78.3703C364.89 73.2203 364.53 65.2399 359.39 60.5299L359.36 60.5001L359.39 60.4904ZM336.76 245.92H338.26V357.01C338.26 357.54 338.03 358.04 337.63 358.39C307.74 383.95 270.51 399.34 231.3 402.37C231.25 402.37 231.2 402.37 231.16 402.37C230.15 402.37 229.33 401.55 229.33 400.54V365.03C229.33 364.63 229.5 364.24 229.78 363.95L230.01 363.69L230.9 362.7C231.66 361.85 232.79 360.59 234.26 358.96C237.11 355.78 241.25 351.17 246.24 345.62C256.87 333.79 270.12 319.06 282.6 305.19C292.89 293.76 307.56 277.47 319 264.78C324.21 259.01 328.26 254.53 331.04 251.46C332.53 249.82 333.67 248.56 334.44 247.72C334.84 247.28 335.15 246.95 335.36 246.73C335.47 246.61 335.56 246.52 335.62 246.46C335.91 246.12 336.34 245.92 336.79 245.92H336.76ZM335.26 356.46V251.25C328.88 258.26 310.84 278.26 284.57 307.45C258.58 336.33 235.44 362.09 232.32 365.59V399.27C270.27 396.14 306.28 381.16 335.26 356.47V356.46Z" fill="#0800FF"/>
<path d="M248.04 3.31019C301.62 3.25019 353.28 23.3004 392.8 59.4904L392.83 59.5202C399.01 65.1902 399.6 74.73 394.18 81.13V81.15L393.79 81.5802C387.96 87.9502 378.08 88.39 371.71 82.57C337.95 51.66 293.82 34.5302 248.05 34.5802C146.98 34.5802 64.75 116.81 64.75 217.88C64.75 312.51 138.3 392.46 232.42 400.46V366.64L102.14 224.08C96.04 217.97 96.05 208.07 102.17 201.97C108.28 195.87 118.18 195.88 124.28 202L124.33 202.06L232.42 321.98V171.71C232.42 163.08 239.43 156.08 248.06 156.09C256.69 156.09 263.68 163.09 263.68 171.71V322.03L371.2 202.68C374.13 199.75 378.11 198.1 382.25 198.1C385.27 198.1 388.23 198.98 390.77 200.62C393.07 202.13 394.91 204.24 396.1 206.73C397.28 209.19 397.89 211.88 397.88 214.61V364.58C397.9 368.99 396.08 373.21 392.85 376.21C357.28 408.76 311.77 428.36 263.68 431.82V513.39C263.68 522.02 256.67 529.02 248.04 529.01C239.41 529.01 232.42 522.01 232.42 513.39V431.82C192.22 428.91 153.66 414.68 121.21 390.79C99.91 375.13 81.66 355.7 67.37 333.46C45.21 298.99 33.44 258.86 33.49 217.88C33.49 99.57 129.74 3.31996 248.05 3.31996L248.04 3.31019ZM390.75 61.6803C351.79 26.0103 300.87 6.25019 248.04 6.31019C131.39 6.31019 36.48 101.22 36.48 217.87C36.48 334.52 123.12 421.46 233.72 428.89C234.67 428.96 235.4 429.75 235.4 430.7V513.37C235.4 520.35 241.05 526 248.02 526.01C255 526.01 260.65 520.36 260.66 513.39V430.7C260.66 429.74 261.4 428.95 262.35 428.89C310.14 425.62 355.41 406.27 390.8 373.99C393.41 371.56 394.88 368.14 394.86 364.58V214.6C394.86 209.81 392.66 205.41 389.12 203.13C387.07 201.8 384.67 201.09 382.22 201.08C378.88 201.08 375.68 202.39 373.31 204.76L260.65 329.83V171.7C260.65 164.72 254.99 159.07 248.01 159.08C241.04 159.08 235.39 164.73 235.39 171.7V329.78L122.09 204.09C117.15 199.16 109.15 199.18 104.23 204.12C99.3 209.06 99.32 217.06 104.26 221.98L104.31 222.03L235.4 365.47V401.73C235.4 402.74 234.58 403.56 233.57 403.56C233.52 403.56 233.48 403.56 233.43 403.56C198.49 400.83 165.04 388.27 136.95 367.32C118.67 353.71 103.02 336.88 90.77 317.65C71.77 287.85 61.69 253.23 61.73 217.89C61.73 115.17 145.3 31.59 248.03 31.59C294.55 31.54 339.4 48.9503 373.71 80.3703C378.81 85.0403 386.71 84.7403 391.44 79.7003L391.55 79.5802C396.25 74.4302 395.89 66.4504 390.75 61.7404L390.72 61.7101L390.75 61.6803ZM368.12 247.11H369.62V358.2C369.62 358.73 369.39 359.23 368.99 359.58C339.1 385.14 301.87 400.53 262.66 403.56C262.61 403.56 262.56 403.56 262.52 403.56C261.51 403.56 260.69 402.74 260.69 401.73V366.22C260.69 365.82 260.86 365.43 261.14 365.14L261.37 364.88L262.26 363.89C263.02 363.04 264.15 361.78 265.62 360.15C268.47 356.97 272.61 352.36 277.6 346.81C288.23 334.98 301.48 320.25 313.96 306.38C324.25 294.95 338.92 278.66 350.36 265.97C355.57 260.2 359.62 255.72 362.4 252.65C363.89 251.01 365.03 249.75 365.8 248.91C366.2 248.47 366.51 248.14 366.72 247.92C366.83 247.8 366.92 247.71 366.98 247.65C367.27 247.31 367.7 247.11 368.15 247.11H368.12ZM366.62 357.66V252.45C360.24 259.46 342.2 279.46 315.93 308.65C289.94 337.53 266.8 363.29 263.68 366.79V400.47C301.63 397.34 337.64 382.36 366.62 357.66Z" fill="#FFF700"/>
</g>
</svg>
