<svg width="41" height="41" viewBox="0 0 41 41" fill="none" xmlns="http://www.w3.org/2000/svg">
<g id="&#208;&#161;&#208;&#179;&#209;&#128;&#209;&#131;&#208;&#191;&#208;&#191;&#208;&#184;&#209;&#128;&#208;&#190;&#208;&#178;&#208;&#176;&#209;&#130;&#209;&#140;_135">
<g id="Group">
<g id="Clip path group">
<mask id="mask0_1_4530" style="mask-type:luminance" maskUnits="userSpaceOnUse" x="0" y="0" width="41" height="41">
<g id="SVGID_00000036944136220641827330000011486279479071416254_">
<path id="Vector" d="M40.3 0H0V40.3H40.3V0Z" fill="white"/>
</g>
</mask>
<g mask="url(#mask0_1_4530)">
<g id="&#208;&#161;&#208;&#179;&#209;&#128;&#209;&#131;&#208;&#191;&#208;&#191;&#208;&#184;&#209;&#128;&#208;&#190;&#208;&#178;&#208;&#176;&#209;&#130;&#209;&#140;_55">
<path id="&#208;&#154;&#208;&#190;&#208;&#189;&#209;&#130;&#209;&#131;&#209;&#128;_52" d="M0 20.1C0 17.3 0 14.4 0 11.6C0 10.6 0 9.7 0.1 8.7C0.1 7.1 0.6 5.6 1.4 4.2C2.5 2.5 4.1 1.2 6 0.5C7.1 0.2 8.2 0.1 9.4 0C10.8 0 12.2 0 13.6 0C18.9 0 24.2 0 29.5 0C30.5 0 31.4 0.1 32.4 0.2C36.3 0.6 39.4 3.5 40 7.4C40.2 8.7 40.3 10 40.2 11.3C40.2 17 40.2 22.8 40.2 28.5C40.2 29.6 40.2 30.6 40.1 31.7C40.1 33.2 39.6 34.8 38.8 36.1C37.5 38.2 35.4 39.7 33 40.1C31.7 40.3 30.4 40.4 29.1 40.4C22.9 40.4 16.7 40.4 10.6 40.4C9.6 40.4 8.6 40.3 7.5 40.2C4.7 39.8 2.3 38.1 1 35.6C0.5 34.7 0.2 33.7 0.1 32.7C0 31.4 0 30.2 0 29C0 26.1 0 23.1 0 20.1ZM7.1 11.6C7.2 11.7 7.2 11.7 7.2 11.7C10.6 15.1 14 18.5 17.4 21.9C18.8 23.4 21.1 23.4 22.6 22L22.7 21.9C26.1 18.5 29.5 15.1 32.9 11.7C32.9 11.7 33 11.6 33 11.5L7.1 11.6ZM33 28.7L25.1 20.8C25.1 20.8 25.1 20.8 25 20.9C24.4 21.5 23.8 22.1 23.3 22.6C21.5 24.4 18.6 24.4 16.8 22.6C16.8 22.6 16.8 22.6 16.7 22.5C16.2 22 15.6 21.4 15.1 20.9L15 20.8V20.9L7.2 28.7H33ZM33.5 12.5L25.8 20.1L33.4 27.7L33.5 12.5ZM6.7 12.6V27.8L14.3 20.2L6.7 12.6Z" fill="black"/>
</g>
</g>
</g>
</g>
</g>
</svg>
