<svg width="94" height="90" viewBox="0 0 94 90" fill="none" xmlns="http://www.w3.org/2000/svg">
<g id="&#208;&#161;&#208;&#179;&#209;&#128;&#209;&#131;&#208;&#191;&#208;&#191;&#208;&#184;&#209;&#128;&#208;&#190;&#208;&#178;&#208;&#176;&#209;&#130;&#209;&#140; 71">
<g id="Clip path group">
<mask id="mask0_1_3850" style="mask-type:luminance" maskUnits="userSpaceOnUse" x="0" y="0" width="94" height="90">
<g id="clippath-8">
<path id="Vector" d="M93.13 0.859863H0.830017V89.3301H93.13V0.859863Z" fill="white"/>
</g>
</mask>
<g mask="url(#mask0_1_3850)">
<g id="Group">
<g id="&#208;&#161;&#208;&#179;&#209;&#128;&#209;&#131;&#208;&#191;&#208;&#191;&#208;&#184;&#209;&#128;&#208;&#190;&#208;&#178;&#208;&#176;&#209;&#130;&#209;&#140; 68">
<path id="&#208;&#154;&#208;&#190;&#208;&#189;&#209;&#130;&#209;&#131;&#209;&#128; 58" d="M46.98 89.3398C46.19 89.2098 45.44 89.0902 44.69 88.9702C44.35 88.9202 44.0099 88.8601 43.6599 88.8301C41.9399 88.6501 40.21 88.55 38.51 88.29C37.18 88.08 35.87 87.6899 34.56 87.3599C33.39 87.0599 32.22 86.7201 31.05 86.3901C30.77 86.2901 30.4899 86.1698 30.2199 86.0298C28.8999 85.4698 27.54 84.9798 26.26 84.3398C24.85 83.6398 23.4899 82.8698 22.1599 82.0298C20.5399 81.0698 18.99 79.9898 17.51 78.8198C15.66 77.2398 13.91 75.5498 12.25 73.7798C11 72.4498 9.84996 71.03 8.79996 69.54C7.85996 68.21 7.01998 66.8199 6.25998 65.3799C5.46998 63.9099 4.80997 62.3701 4.11997 60.8501C3.82997 60.1601 3.56995 59.4602 3.34995 58.7402C2.94995 57.5202 2.56998 56.3001 2.19998 55.0801C2.03998 54.5701 1.91995 54.05 1.84995 53.52C1.62995 51.89 1.46997 50.2298 1.24997 48.5898C1.16997 47.9698 0.969997 47.3698 0.899997 46.7598C0.829997 46.1798 0.799999 45.59 0.839999 45C0.879999 44.28 1.00996 43.5601 1.10996 42.8301C1.14996 42.5201 1.20997 42.2099 1.24997 41.8999C1.42997 40.2899 1.52996 38.6701 1.79996 37.0801C2.06996 35.7501 2.39997 34.4301 2.80997 33.1401C3.11997 32.0301 3.43998 30.9198 3.81998 29.8398C4.07998 29.0998 4.45995 28.4002 4.78995 27.6802C5.13995 26.9202 5.47997 26.1401 5.86997 25.3901C6.25997 24.6101 6.69997 23.8601 7.17997 23.1401C8.31996 21.4701 9.45996 19.7999 10.67 18.1699C12.05 16.3299 13.64 14.6502 15.39 13.1602C16.88 11.8402 18.44 10.6002 20.07 9.47021C21.92 8.23022 23.83 7.09006 25.81 6.06006C27.35 5.29006 28.92 4.60977 30.53 4.00977C32.2 3.38977 33.9 2.86996 35.63 2.45996C38.51 1.81996 41.42 1.38014 44.36 1.14014C45.47 0.970137 46.5999 0.890137 47.7199 0.890137C48.2099 0.930137 48.7 0.999863 49.18 1.10986C49.52 1.15986 49.86 1.24002 50.2 1.27002C51.92 1.45002 53.6399 1.59006 55.3499 1.81006C56.2099 1.96006 57.0699 2.15014 57.9099 2.39014C58.4899 2.53014 59.06 2.65982 59.63 2.81982C60.75 3.11982 61.8899 3.35977 62.9699 3.75977C64.3299 4.26977 65.65 4.87977 66.96 5.50977C68.32 6.12977 69.64 6.81006 70.93 7.56006C72.55 8.55006 74.1099 9.65023 75.6599 10.7402C77.7299 12.2402 79.63 13.9499 81.32 15.8599C82.55 17.1999 83.7 18.6201 84.76 20.1001C85.83 21.5901 86.81 23.1402 87.69 24.7402C88.5 26.2002 89.15 27.7398 89.83 29.2598C90.12 29.9498 90.3799 30.6501 90.5999 31.3701C90.9999 32.5901 91.38 33.8098 91.75 35.0298C91.91 35.5598 92.04 36.1001 92.11 36.6401C92.32 38.3201 92.49 40.0002 92.7 41.6802C92.77 42.2202 92.94 42.7498 93.03 43.2998C93.1 43.7298 93.12 44.1699 93.12 44.6099C93.22 45.5299 93.1299 46.4501 92.8499 47.3301C92.7699 47.5801 92.7199 47.8298 92.7199 48.0898C92.5299 49.8098 92.37 51.5302 92.13 53.2402C91.98 53.9902 91.79 54.7402 91.56 55.4702C91.4 56.0602 91.25 56.64 91.08 57.23C90.81 58.29 90.49 59.3401 90.12 60.3701C89.59 61.6701 88.9399 62.9399 88.2899 64.1899C87.6299 65.5299 86.8999 66.8298 86.0999 68.0898C85.1099 69.5998 84.04 71.0399 82.89 72.4199C81.67 73.8699 80.34 75.2501 78.9799 76.5801C77.1799 78.3501 75.1899 79.9102 73.0399 81.2402C71.4599 82.2302 69.85 83.1898 68.18 84.0298C66.65 84.7998 65.05 85.4501 63.45 86.0801C61.78 86.7001 60.0799 87.2199 58.3499 87.6299C55.4799 88.3099 52.56 88.7399 49.62 88.9199C48.73 88.9999 47.86 89.1901 46.98 89.3301M70.0399 33.4102L69.89 33.3901C69.96 31.1001 69.42 28.8401 68.32 26.8301C67.24 24.7001 65.64 22.8602 63.68 21.4902C62.35 20.4602 60.85 19.6599 59.25 19.1299C58.17 18.8099 57.12 18.3298 56.03 18.0698C54.94 17.8098 53.8 17.73 52.69 17.54C50.04 17.21 47.35 17.2399 44.71 17.6299C44.58 17.6399 44.44 17.67 44.31 17.71C42.91 18.18 41.53 18.6699 40.12 19.1299C38.61 19.6799 37.18 20.4399 35.88 21.3799C34.2 22.5299 32.67 23.8699 31.32 25.3799C30.82 25.8899 30.36 26.42 29.93 26.98C29.1 28.14 28.3099 29.32 27.5399 30.52C27.0299 31.29 26.58 32.1002 26.19 32.9302C25.67 34.1202 25.33 35.3898 24.78 36.5698C24.43 37.3998 24.58 38.37 25.18 39.04C26.13 40.3 27.64 40.9899 29.21 40.8799C30.7 40.9799 32.0799 40.0902 32.5999 38.7002C32.9599 37.7602 33.2999 36.8199 33.7199 35.8999C34.2399 34.6699 34.84 33.4701 35.51 32.3101C36.24 31.1001 37.09 29.9699 38.07 28.9399C39.3 27.6899 40.73 26.6599 42.3 25.8799C43.85 25.1299 45.53 24.7001 47.25 24.6001C48.65 24.5801 50.05 24.64 51.44 24.79C53.56 24.87 55.6299 25.4598 57.4699 26.5098C58.3199 26.9898 59.12 27.5702 59.82 28.2402C61.1 29.4902 61.88 31.1702 61.99 32.9502C62.28 34.9002 61.81 36.89 60.67 38.5C59.91 39.44 59.03 40.29 58.07 41.02C56.66 42.02 55.07 42.7301 53.38 43.1201C52.89 43.2601 52.39 43.39 51.89 43.5C51.5 43.58 51.31 43.45 51.26 43.02C51.08 41.58 50.7999 40.1602 50.6599 38.7202C50.5499 37.6102 50.26 36.52 49.8 35.5C49.35 34.31 48.6 33.2602 47.62 32.4502C46.99 31.9702 46.29 31.6099 45.54 31.3599C44.54 31.1199 43.5 31.1101 42.49 31.3301C41.78 31.4301 40.59 32.2799 40.58 32.8999C40.55 33.8099 40.62 34.7299 40.78 35.6299C41.01 36.8499 41.38 38.05 41.68 39.25C41.94 40.3 42.19 41.3499 42.42 42.3999C42.5 42.6799 42.52 42.98 42.5 43.27C42.49 43.41 42.25 43.6399 42.13 43.6299C41.71 43.6299 41.29 43.5401 40.9 43.3901C39.99 42.9701 39.12 42.4698 38.23 42.0298C37.65 41.7398 37 41.4002 36.42 41.9502C36.05 42.2802 35.79 42.7102 35.68 43.1802C35.6 43.9902 35.57 44.8001 35.59 45.6001C35.59 46.7001 36.14 47.7298 37.06 48.3398C38.54 49.3498 40.15 50.17 41.84 50.77C42.61 51.1 42.72 51.15 42.71 51.98C42.69 53.45 42.62 54.9199 42.62 56.3999C42.57 58.6499 42.33 60.9001 41.89 63.1201C41.58 64.9601 40.81 66.6502 40.37 68.4502C40.18 69.3302 40.31 70.2498 40.73 71.0498C41.36 72.2498 42.67 72.92 44.01 72.73C45.41 72.71 46.69 71.9302 47.34 70.6802C47.81 69.7902 48.13 68.82 48.64 67.96C49.29 66.59 49.77 65.1399 50.07 63.6499C50.36 62.4899 50.52 61.2999 50.56 60.1099C50.64 59.1399 50.56 58.1602 50.61 57.1802C50.7 55.2502 50.82 53.3201 50.96 51.3901C50.99 51.1501 51.13 50.9301 51.34 50.8101C51.93 50.6201 52.56 50.5301 53.17 50.3901C53.88 50.2701 54.59 50.1001 55.28 49.8901C56.48 49.4901 57.65 49.02 58.79 48.48C60.2 47.82 61.57 47.0502 62.86 46.1802C64.54 45.0002 65.9999 43.5198 67.1599 41.8198C68.1699 40.3698 68.9299 38.7601 69.4099 37.0601C69.6899 35.8501 69.9 34.6199 70.03 33.3799" fill="white"/>
</g>
</g>
</g>
</g>
</g>
</svg>
