<svg width="76" height="87" viewBox="0 0 76 87" fill="none" xmlns="http://www.w3.org/2000/svg">
<rect width="76" height="87" fill="#1E1E1E"/>
<mask id="mask0_0_1" style="mask-type:luminance" maskUnits="userSpaceOnUse" x="-123" y="-7322" width="1920" height="7928">
<path d="M1797 -7322H-123V606H1797V-7322Z" fill="white"/>
</mask>
<g mask="url(#mask0_0_1)">
<path d="M1797 -7322H-123V606H1797V-7322Z" fill="white"/>
<path d="M1802 -7322H-123V1124H1802V-7322Z" fill="#151515"/>
<path d="M-122 -7321V1123H1801V-7321H-122ZM-123 -7322H1802V1124H-123V-7322Z" fill="#707070"/>
<mask id="mask1_0_1" style="mask-type:luminance" maskUnits="userSpaceOnUse" x="0" y="0" width="76" height="87">
<path d="M75.38 0H0.599976V86.8398H75.38V0Z" fill="white"/>
</mask>
<g mask="url(#mask1_0_1)">
<path d="M16.43 78.1701C15.98 78.1301 15.15 78.0702 14.33 77.9602C13.96 77.8802 13.59 77.7601 13.24 77.6101C13.02 77.5301 12.83 77.3903 12.61 77.3303C12.21 77.2103 11.85 77.0004 11.54 76.7204C11.13 76.3604 10.78 75.9404 10.48 75.4904C10.35 75.3404 10.26 75.1704 10.2 74.9904C10.04 74.1804 9.90999 73.3602 9.76999 72.5402C9.76999 72.4102 9.76998 72.2904 9.74998 72.1604C9.58998 71.5504 9.62996 70.91 9.85996 70.32C9.95996 69.89 9.98997 69.4402 10.06 69.0002C10.23 67.9702 10.41 66.9404 10.57 65.9104C10.72 64.9404 10.83 63.9604 10.99 62.9904C11.05 62.6304 11.2 62.2804 11.28 61.9304C11.42 61.2504 11.5399 60.5603 11.6599 59.8703C11.7499 59.3303 11.81 58.7902 11.9 58.2502C12.1 57.0002 12.31 55.76 12.53 54.51C12.61 54.07 12.74 53.6404 12.8 53.2004C12.99 51.9604 13.15 50.7204 13.35 49.4904C13.57 48.6004 13.73 47.69 13.83 46.78C13.96 45.6 14.18 44.4202 14.49 43.2702C14.61 42.5802 14.6 41.8704 14.71 41.1804C14.89 39.9604 15.13 38.74 15.31 37.51C15.44 36.61 15.49 35.7103 15.58 34.8103C15.58 34.6703 15.5999 34.5301 15.6599 34.4001C15.9399 33.8201 16.1 33.19 16.11 32.55C16.22 31.03 16.43 29.52 16.74 28.03C16.89 27.09 16.99 26.1304 17.05 25.1804C17.2 24.0604 17.44 22.94 17.57 21.82C17.69 20.74 17.74 19.65 17.79 18.57C17.86 17 17.92 15.4301 17.95 13.8601C17.97 12.9701 17.9199 12.0704 17.9099 11.1804C17.9099 10.6504 17.97 10.5303 18.49 10.3903C19.89 9.96033 21.35 9.70006 22.81 9.61006C23.81 9.58006 24.82 9.44004 25.82 9.34004C26.91 9.23004 27.99 9.0802 29.09 9.0002C30.64 8.8902 32.2 8.80043 33.75 8.74043C35.19 8.69043 36.63 8.66014 38.08 8.69014C39.6 8.72014 41.11 8.84035 42.63 8.91035C43.26 8.94035 43.9 8.91037 44.54 8.93037C45.91 8.93037 47.27 9.09035 48.6 9.41035C49.4 9.61035 50.25 9.57016 51.07 9.71016C51.7 9.81016 52.3 10.0501 52.92 10.1701C53.97 10.4501 55.01 10.7901 56.02 11.1901C56.44 11.2401 56.83 11.4101 57.15 11.6901C57.19 11.7301 57.23 11.76 57.28 11.78C57.98 12.13 58.69 12.47 59.39 12.82C59.57 12.91 59.74 13.0204 59.9 13.1604C60.69 13.8004 61.44 14.4802 62.15 15.2102C62.93 15.8902 63.56 16.7203 64.01 17.6403C64.07 17.7403 64.13 17.8301 64.21 17.9201C64.41 18.2301 64.58 18.55 64.8 18.84C65.26 19.59 65.6 20.4 65.8 21.26C65.96 21.73 66.09 22.2101 66.19 22.6901C66.31 23.2501 66.38 23.8301 66.52 24.3801C66.89 26.1801 66.99 28.0303 66.83 29.8703C66.78 30.6503 66.63 31.4101 66.37 32.1501C66.28 32.6001 66.22 33.05 66.18 33.51C66.08 33.81 65.96 34.0903 65.81 34.3703C65.71 34.6103 65.61 34.8603 65.51 35.1003C65.39 35.4103 65.28 35.7202 65.15 36.0202C65.02 36.3402 64.87 36.6504 64.7 36.9504C64.35 37.6804 63.9 38.3602 63.38 38.9802C63.04 39.3402 62.77 39.7703 62.44 40.1403C61.74 40.9303 61.04 41.7202 60.29 42.4602C59.81 42.8702 59.31 43.2601 58.8 43.6301C58.42 43.9301 58.08 44.2803 57.7 44.5603C57.02 45.0603 56.29 45.48 55.64 46.01C55.24 46.29 54.82 46.5404 54.37 46.7404C54.04 46.9304 53.84 47.3604 53.6 47.7004C53.57 47.7504 53.59 47.8501 53.61 47.9201C53.9 48.7701 54.22 49.6202 54.49 50.4802C54.85 51.6102 55.18 52.7403 55.53 53.8703C55.62 54.1603 55.75 54.4404 55.86 54.7204C56.26 55.7504 56.67 56.7803 57.03 57.8303C57.11 58.2403 57.28 58.6302 57.53 58.9602C57.65 59.1302 57.7099 59.32 57.7199 59.53C57.8199 60.01 57.98 60.4801 58.21 60.9201C58.64 61.7901 59 62.6901 59.3 63.6101C59.37 63.8301 59.46 64.0402 59.57 64.2302C59.61 64.3202 59.71 64.3902 59.75 64.4802C60.11 65.3502 60.46 66.2303 60.82 67.1003C60.94 67.3903 61.07 67.6702 61.21 67.9602C61.3 68.1502 61.42 68.34 61.53 68.53C61.74 68.92 61.94 69.3104 62.15 69.7004C62.15 69.7104 62.16 69.7202 62.17 69.7302C62.49 70.4302 62.8 71.1303 63.13 71.8303C63.26 72.0803 63.4 72.3102 63.56 72.5402C63.63 72.6502 63.76 72.73 63.79 72.84C63.98 73.71 64.7 74.2402 65.12 74.9602C65.38 75.4102 65.37 75.5104 64.88 75.7004C64.51 75.8404 64.17 76.0804 63.8 76.2404C63.51 76.3704 63.21 76.47 62.9 76.53C62.32 76.56 61.77 76.7402 61.28 77.0402C61.11 77.1202 60.92 77.1604 60.73 77.1604C59.59 77.3204 58.44 77.4001 57.32 77.6301C55.07 78.1101 52.7599 78.26 50.4699 78.07C49.9899 78.01 49.52 77.8701 49.09 77.6501C48.47 77.3601 47.87 77.0103 47.32 76.6003C46.92 76.2603 46.5499 75.8802 46.2199 75.4802C46.0399 75.2902 45.87 75.0903 45.69 74.8903C45.64 74.8303 45.57 74.7904 45.53 74.7204C45.21 74.1204 44.89 73.5101 44.57 72.9001C44.42 72.6201 44.2799 72.3302 44.16 72.0402C44.04 71.8002 43.9599 71.55 43.91 71.28C43.8299 70.67 43.63 70.09 43.33 69.55C43.08 69.09 43.07 68.5 42.84 68.03C42.37 67.07 42.38 65.9303 41.7 65.0603C41.68 65.0303 41.66 65.0002 41.64 64.9602C41.33 63.9202 41.02 62.8903 40.71 61.8503C40.69 61.7903 40.69 61.7204 40.67 61.6604C40.28 60.6004 39.82 59.5604 39.52 58.4704C39.23 57.4104 38.7 56.4303 38.44 55.3703C38.4 55.2103 38.34 55.0501 38.29 54.9001C38.08 54.2501 37.8499 53.6001 37.6599 52.9401C37.4899 52.3401 37.35 52.13 36.74 52.09C35.93 52.09 35.13 52.0003 34.34 51.8503C33.33 52.0503 32.31 52.12 31.29 52.07C31.07 52.14 30.89 52.3002 30.81 52.5202C30.35 53.9302 30.1 55.4103 30.08 56.8903C30.08 57.0403 30.05 57.2 30 57.34C29.61 58.69 29.38 60.0904 29.32 61.4904C29.24 62.2204 29.0799 62.9504 28.9699 63.6804C28.8299 64.6504 28.66 65.6203 28.6 66.6003C28.5 68.2403 28.42 69.8902 28.42 71.5402C28.42 72.4802 28.59 73.4201 28.67 74.3601C28.71 74.6201 28.72 74.8904 28.69 75.1604C28.64 75.3604 28.52 75.5404 28.36 75.6604C27.57 76.0904 26.75 76.4504 25.9 76.7204C24.75 77.0804 23.57 77.34 22.38 77.51C20.43 77.97 18.42 78.1904 16.42 78.1604M38.25 18.26V18.3303H37.17C36.16 18.3303 35.78 18.6503 35.65 19.6403C35.63 19.7703 35.63 19.8902 35.62 20.0202C35.58 21.4402 35.37 22.8504 35 24.2204C34.87 24.6104 34.8 25.0201 34.79 25.4201C34.77 26.8801 34.56 28.3202 34.19 29.7302C34.11 30.0802 34.05 30.4302 34.02 30.7902C33.85 31.8602 33.68 32.9302 33.51 34.0002C33.41 34.6302 33.33 35.2603 33.25 35.8903C33.13 36.8603 33.04 37.8403 32.9 38.8103C32.78 39.6403 32.58 40.4602 32.44 41.2902C32.36 41.7602 32.61 42.02 33.09 42.03C34.9 42.07 36.71 42.0003 38.52 41.8303C39.1 41.7703 39.68 41.6802 40.26 41.5402C40.64 41.4502 40.97 41.1703 41.35 41.1003C42.06 40.8503 42.73 40.5103 43.34 40.0803C43.75 39.8503 44.13 39.5602 44.45 39.2102C44.94 38.7102 45.4 38.1901 45.83 37.6301C46.21 37.0901 46.56 36.5301 46.88 35.9401C47.09 35.5701 47.26 35.1702 47.44 34.7702C47.51 34.6102 47.58 34.4402 47.62 34.2702C47.73 33.8602 47.82 33.45 47.94 33.05C48.13 32.55 48.29 32.0402 48.42 31.5202C48.62 30.2102 48.7599 28.89 48.91 27.57C48.93 27.35 48.93 27.1301 48.9 26.9201C48.77 25.9301 48.6399 24.9504 48.4699 23.9704C48.3799 23.6304 48.25 23.2902 48.09 22.9802C48.02 22.8202 47.89 22.6802 47.82 22.5202C47.2 21.3502 46.25 20.39 45.08 19.76C44.11 19.17 43.02 18.7801 41.89 18.6301C40.69 18.4501 39.49 18.3704 38.28 18.2404" fill="white"/>
</g>
</g>
</svg>
