<svg width="525" height="820" viewBox="0 0 525 820" fill="none" xmlns="http://www.w3.org/2000/svg">
<path d="M244.87 0.73999C245.3 0.73999 245.71 0.91999 245.99 1.23999C268.24 26.27 279.35 59.28 276.77 92.67L271.2 257.04V257.09C265.42 342.38 285.82 427.4 329.67 500.78L329.7 500.83C331.52 504.15 333.15 507.27 334.66 510.35L355.44 505.37C376.32 500.16 389.03 479.01 383.82 458.13C379.5 440.79 363.93 428.61 346.06 428.59C343.45 428.59 340.85 428.85 338.3 429.37C337.49 429.53 336.7 429.01 336.53 428.2C336.5 428.04 336.49 427.88 336.51 427.72L361.62 223.8C361.62 223.74 361.64 223.68 361.65 223.62C378.94 154.49 424.36 95.74 486.92 61.62C487.65 61.22 488.56 61.49 488.96 62.22C489.08 62.44 489.14 62.69 489.14 62.94V649.65C489.14 650.48 488.47 651.15 487.64 651.15H353.67C343.65 703.68 315.18 750.89 273.4 784.26C273.35 784.3 273.3 784.33 273.25 784.36C262.06 791.27 252.75 800.85 246.17 812.24C245.76 812.96 244.84 813.2 244.12 812.79C243.89 812.66 243.7 812.47 243.57 812.24C236.99 800.85 227.69 791.28 216.5 784.36C216.45 784.33 216.4 784.3 216.35 784.26C174.57 750.89 146.09 703.67 136.07 651.15H2.09998C1.26998 651.15 0.599976 650.48 0.599976 649.65V62.94C0.599976 62.11 1.26998 61.44 2.09998 61.44C2.34998 61.44 2.59995 61.5 2.81995 61.62C18.3299 70.08 32.92 80.13 46.35 91.61C59.64 102.97 71.7301 115.67 82.4301 129.49C93.1201 143.32 102.37 158.22 110.02 173.94C117.75 189.83 123.8 206.48 128.09 223.62C128.1 223.68 128.12 223.74 128.12 223.8L153.23 427.72C153.33 428.54 152.75 429.29 151.92 429.39C151.76 429.41 151.6 429.4 151.44 429.37C130.35 425.11 109.8 438.76 105.54 459.85C101.42 480.27 114.09 500.31 134.3 505.36L155.07 510.34C156.59 507.24 158.22 504.11 160.03 500.82L160.06 500.77C181.87 464.3 198 424.72 207.91 383.39C217.83 342.07 221.42 299.48 218.53 257.08V257.03L212.97 92.66C210.39 59.27 221.5 26.26 243.74 1.22998C244.03 0.90998 244.43 0.72998 244.86 0.72998L244.87 0.73999ZM268.21 256.91L273.77 92.53V92.46C276.26 60.46 265.85 28.79 244.87 4.50998C223.89 28.8 213.48 60.46 215.97 92.46V92.53L221.53 256.91C224.43 299.61 220.82 342.49 210.83 384.1C200.85 425.71 184.61 465.56 162.65 502.29C160.66 505.91 158.89 509.33 157.24 512.73C156.93 513.36 156.23 513.7 155.54 513.53L133.59 508.26H133.58C111.09 502.68 97.37 479.93 102.95 457.44C108.17 436.39 128.57 422.78 150.01 426.06L125.16 224.25C108.2 156.86 64.23 99.43 3.59998 65.47V648.14H137.31C138.03 648.14 138.65 648.66 138.79 649.37C148.46 701.64 176.63 748.67 218.15 781.86C229.01 788.57 238.16 797.72 244.88 808.58C251.6 797.72 260.75 788.58 271.61 781.86C313.13 748.67 341.3 701.64 350.96 649.38C351.09 648.67 351.71 648.15 352.44 648.15H486.16V65.48C425.53 99.44 381.56 156.87 364.6 224.26L339.75 426.07C341.84 425.75 343.96 425.59 346.08 425.59C369.25 425.59 388.04 444.37 388.05 467.54C388.05 486.83 374.91 503.64 356.18 508.27H356.17L334.22 513.54C333.53 513.7 332.83 513.37 332.52 512.74C330.89 509.36 329.12 505.95 327.11 502.3C282.95 428.41 262.41 342.8 268.23 256.91H268.21ZM42.5601 145.77C43.0001 145.77 43.42 145.96 43.7 146.3C54.39 158.82 63.61 172.54 71.16 187.17C78.71 201.8 84.5499 217.26 88.5699 233.23C88.5899 233.29 88.6 233.35 88.6 233.41L108.62 395.2C108.7 395.83 108.37 396.44 107.81 396.72C87.4501 407.04 72.5 425.62 66.8 447.72C66.63 448.38 66.03 448.84 65.35 448.84H42.5601C41.7301 448.84 41.0601 448.17 41.0601 447.34V147.27C41.0601 146.44 41.7301 145.77 42.5601 145.77ZM85.64 233.87C81.68 218.15 75.93 202.94 68.49 188.54C61.67 175.34 53.48 162.89 44.05 151.4V445.84H64.1899C70.2299 423.74 85.21 405.14 105.52 394.53L85.64 233.88V233.87ZM447.19 145.77C448.02 145.77 448.69 146.44 448.69 147.27V447.34C448.69 448.17 448.02 448.84 447.19 448.84H424.39C423.71 448.84 423.11 448.38 422.94 447.72C417.23 425.62 402.29 407.04 381.93 396.72C381.37 396.43 381.04 395.83 381.12 395.2L401.14 233.41C401.14 233.35 401.16 233.29 401.17 233.23C409.22 201.18 424.59 171.43 446.05 146.3C446.34 145.97 446.75 145.78 447.19 145.78V145.77ZM445.69 445.84V151.4C425.91 175.48 411.7 203.65 404.09 233.87L384.21 394.53C404.52 405.15 419.49 423.74 425.54 445.85H445.69V445.84ZM244.87 406.35C245.54 406.35 246.14 406.8 246.32 407.45C256.72 445.25 271.9 481.57 291.5 515.53C292.52 517.25 293.41 518.81 294.24 520.31C294.64 521.03 294.38 521.95 293.65 522.35C293.54 522.41 293.42 522.46 293.3 522.49C274.69 527.3 258.12 537.96 246.04 552.9C245.52 553.54 244.57 553.64 243.93 553.12C243.85 553.05 243.77 552.98 243.71 552.9C231.63 537.96 215.06 527.29 196.45 522.49C195.65 522.28 195.17 521.46 195.37 520.66C195.4 520.54 195.45 520.42 195.51 520.31C196.37 518.76 197.26 517.2 198.25 515.53C217.85 481.58 233.03 445.26 243.43 407.45C243.61 406.8 244.2 406.35 244.88 406.35H244.87ZM290.67 520.09C290.12 519.13 289.54 518.12 288.91 517.05C270.08 484.41 255.29 449.6 244.88 413.39C234.47 449.6 219.69 484.4 200.85 517.03C200.23 518.09 199.65 519.1 199.09 520.08C216.97 525.1 232.93 535.39 244.89 549.59C256.85 535.38 272.81 525.1 290.69 520.08L290.67 520.09ZM42.5601 486.3H65.35C66.03 486.3 66.63 486.76 66.8 487.42C74.18 516.26 97.12 538.52 126.17 545.03L141.91 548.67C142.72 548.86 143.22 549.66 143.03 550.47C143.03 550.49 143.03 550.51 143.01 550.53C137.75 569.64 135.09 589.37 135.08 609.19C135.08 610.02 134.41 610.69 133.58 610.69H42.55C41.72 610.69 41.05 610.02 41.05 609.19V487.8C41.05 486.97 41.72 486.3 42.55 486.3H42.5601ZM64.2 489.3H44.0601V607.69H132.1C132.23 588.63 134.79 569.66 139.72 551.25L125.5 547.96C95.8 541.23 72.23 518.68 64.2 489.3ZM424.39 486.3H447.19C448.02 486.3 448.69 486.97 448.69 487.8V609.19C448.69 610.02 448.02 610.69 447.19 610.69H356.15C355.32 610.69 354.65 610.02 354.65 609.19C354.65 589.37 351.98 569.64 346.73 550.53C346.51 549.73 346.98 548.91 347.78 548.69C347.8 548.69 347.82 548.68 347.84 548.67L363.58 545.03C392.63 538.52 415.57 516.26 422.94 487.42C423.11 486.76 423.71 486.3 424.39 486.3ZM445.69 489.3H425.54C417.51 518.67 393.94 541.23 364.24 547.96L350.02 551.25C354.95 569.66 357.5 588.63 357.64 607.69H445.69V489.3ZM181.08 557.6C181.15 557.6 181.22 557.6 181.29 557.62C207.01 561.21 226.15 583.22 226.14 609.19C226.14 610.02 225.47 610.69 224.64 610.69H174.06C173.23 610.69 172.56 610.02 172.56 609.19C172.56 592.11 174.94 575.11 179.64 558.69C179.82 558.05 180.41 557.6 181.08 557.6ZM223.12 607.69C222.4 584.29 205.26 564.66 182.17 560.79C177.92 576.07 175.7 591.83 175.57 607.69H223.12ZM308.66 557.6C309.33 557.6 309.92 558.04 310.1 558.69C314.8 575.11 317.18 592.11 317.18 609.19C317.18 610.02 316.51 610.69 315.68 610.69H265.1C264.27 610.69 263.6 610.02 263.6 609.19C263.6 583.22 282.73 561.21 308.45 557.62C308.52 557.62 308.59 557.61 308.66 557.61V557.6ZM314.18 607.69C314.05 591.83 311.83 576.07 307.58 560.79C284.49 564.66 267.35 584.29 266.63 607.69H314.18ZM178.62 648.16H224.65C225.48 648.16 226.15 648.83 226.15 649.66V735.13C226.15 735.96 225.48 736.63 224.65 736.63C224.24 736.63 223.85 736.46 223.57 736.17C200.59 712.18 184.55 682.39 177.16 649.99C176.98 649.18 177.48 648.38 178.29 648.19C178.4 648.17 178.51 648.15 178.62 648.15V648.16ZM223.15 651.16H180.51C187.66 681.08 202.34 708.68 223.15 731.34V651.16ZM265.1 648.16H311.13C311.96 648.16 312.63 648.83 312.64 649.65C312.64 649.76 312.63 649.88 312.6 649.99C305.22 682.39 289.18 712.17 266.19 736.17C265.62 736.77 264.67 736.8 264.07 736.23C263.77 735.94 263.6 735.55 263.6 735.13V649.66C263.6 648.83 264.27 648.16 265.1 648.16ZM309.24 651.16H266.6V731.34C287.41 708.68 302.09 681.08 309.24 651.16Z" fill="#0800FF"/>
<path d="M280.53 7.33984C280.96 7.33984 281.37 7.51984 281.65 7.83984C303.9 32.8698 315.01 65.8798 312.43 99.2698L306.87 263.64V263.69C301.09 348.98 321.49 434 365.34 507.38L365.37 507.43C367.19 510.75 368.82 513.88 370.33 516.95L391.11 511.97C411.99 506.76 424.7 485.61 419.49 464.73C415.17 447.39 399.6 435.21 381.72 435.19C379.11 435.19 376.51 435.45 373.96 435.97C373.15 436.13 372.36 435.61 372.19 434.8C372.16 434.64 372.15 434.48 372.17 434.32L397.28 230.4C397.28 230.34 397.3 230.28 397.31 230.22C414.6 161.09 460.02 102.34 522.58 68.2198C523.31 67.8198 524.22 68.0899 524.62 68.8199C524.74 69.0399 524.8 69.2899 524.8 69.5399V656.25C524.8 657.08 524.13 657.75 523.3 657.75H389.33C379.31 710.28 350.84 757.49 309.06 790.86C309.01 790.9 308.96 790.93 308.91 790.96C297.72 797.87 288.41 807.45 281.83 818.84C281.42 819.56 280.5 819.8 279.78 819.39C279.55 819.26 279.36 819.07 279.23 818.84C272.65 807.45 263.34 797.87 252.15 790.96C252.1 790.93 252.05 790.9 252 790.86C210.22 757.49 181.74 710.27 171.72 657.75H37.75C36.92 657.75 36.25 657.08 36.25 656.25V69.5399C36.25 68.7099 36.92 68.0399 37.75 68.0399C38 68.0399 38.25 68.0998 38.47 68.2198C53.98 76.6798 68.57 86.7298 82.01 98.2098C95.3 109.57 107.39 122.27 118.09 136.1C128.78 149.93 138.03 164.83 145.68 180.55C153.41 196.44 159.46 213.09 163.75 230.23C163.77 230.29 163.78 230.35 163.78 230.41L188.89 434.33C188.99 435.15 188.41 435.9 187.58 436C187.42 436.02 187.26 436.01 187.1 435.98C166.01 431.72 145.46 445.37 141.2 466.46C137.08 486.88 149.75 506.93 169.96 511.98L190.73 516.96C192.25 513.86 193.88 510.74 195.69 507.44L195.72 507.39C217.53 470.92 233.66 431.34 243.57 390.02C253.49 348.7 257.08 306.11 254.19 263.71V263.66L248.63 99.2899C246.04 65.8999 257.15 32.8998 279.4 7.85985C279.68 7.53985 280.09 7.35985 280.52 7.35985L280.53 7.33984ZM303.87 263.51L309.43 99.1299V99.0598C311.92 67.0598 301.51 35.3898 280.53 11.1098C259.55 35.3998 249.14 67.0598 251.63 99.0598V99.1299L257.19 263.51C260.09 306.2 256.48 349.09 246.49 390.7C236.51 432.31 220.26 472.16 198.31 508.89C196.32 512.52 194.55 515.93 192.9 519.34C192.59 519.97 191.89 520.31 191.2 520.14L169.25 514.87H169.24C146.75 509.29 133.03 486.54 138.61 464.04C143.83 442.99 164.23 429.39 185.66 432.66L160.81 230.84C143.85 163.45 99.88 106.02 39.25 72.0598V654.73H172.96C173.68 654.73 174.3 655.25 174.44 655.96C184.11 708.23 212.28 755.26 253.8 788.45C264.66 795.16 273.81 804.31 280.53 815.17C287.25 804.31 296.4 795.17 307.26 788.45C348.78 755.26 376.95 708.23 386.61 655.97C386.74 655.26 387.36 654.74 388.09 654.74H521.81V72.0798C461.18 106.04 417.21 163.47 400.25 230.86L375.4 432.67C377.49 432.35 379.61 432.19 381.73 432.19C404.9 432.19 423.69 450.97 423.7 474.14C423.7 493.43 410.56 510.24 391.83 514.87H391.82L369.87 520.14C369.18 520.3 368.48 519.97 368.17 519.34C366.54 515.97 364.77 512.55 362.76 508.89C318.61 435 298.07 349.39 303.88 263.51H303.87ZM482.85 152.37C483.68 152.37 484.35 153.04 484.35 153.87V453.94C484.35 454.77 483.68 455.44 482.85 455.44H460.05C459.37 455.44 458.77 454.98 458.6 454.32C452.89 432.22 437.95 413.64 417.59 403.32C417.03 403.03 416.7 402.43 416.78 401.8L436.8 240.01C436.8 239.95 436.82 239.89 436.83 239.83C444.88 207.78 460.24 178.03 481.71 152.9C482 152.57 482.41 152.37 482.85 152.38V152.37ZM481.35 452.44V158C461.57 182.08 447.37 210.25 439.76 240.47L419.88 401.13C440.19 411.75 455.16 430.34 461.21 452.44H481.36H481.35ZM78.22 152.37C78.66 152.37 79.08 152.56 79.36 152.9C90.05 165.42 99.2699 179.14 106.82 193.77C114.37 208.4 120.21 223.86 124.23 239.83C124.25 239.89 124.26 239.95 124.26 240.01L144.28 401.8C144.36 402.43 144.03 403.04 143.47 403.32C123.11 413.64 108.16 432.22 102.46 454.32C102.29 454.98 101.69 455.44 101.01 455.44H78.22C77.39 455.44 76.72 454.77 76.72 453.94V153.87C76.72 153.04 77.39 152.37 78.22 152.37ZM121.3 240.47C117.34 224.75 111.59 209.55 104.16 195.14C97.34 181.94 89.15 169.49 79.72 158V452.44H99.86C105.9 430.33 120.88 411.74 141.19 401.12L121.31 240.47H121.3ZM280.53 412.94C281.2 412.94 281.8 413.39 281.98 414.04C292.38 451.84 307.56 488.16 327.16 522.12C328.18 523.84 329.07 525.4 329.9 526.9C330.3 527.62 330.04 528.54 329.31 528.94C329.2 529 329.08 529.05 328.96 529.08C310.35 533.89 293.78 544.55 281.7 559.49C281.18 560.13 280.23 560.23 279.59 559.71C279.51 559.64 279.43 559.57 279.37 559.49C267.29 544.55 250.72 533.88 232.11 529.08C231.31 528.87 230.83 528.05 231.03 527.25C231.06 527.13 231.11 527.01 231.17 526.9C232.03 525.35 232.92 523.79 233.91 522.12C253.51 488.16 268.69 451.84 279.09 414.04C279.27 413.39 279.86 412.94 280.54 412.94H280.53ZM326.33 526.68C325.78 525.72 325.2 524.71 324.57 523.64C305.74 491 290.95 456.19 280.54 419.98C270.13 456.19 255.35 490.99 236.51 523.62C235.89 524.68 235.31 525.69 234.75 526.67C252.63 531.69 268.59 541.98 280.55 556.18C292.51 541.97 308.47 531.69 326.35 526.67L326.33 526.68ZM78.22 492.89H101.01C101.69 492.89 102.29 493.35 102.46 494.01C109.84 522.85 132.78 545.11 161.83 551.62L177.57 555.26C178.38 555.45 178.88 556.25 178.69 557.06C178.69 557.08 178.69 557.1 178.67 557.12C173.42 576.23 170.75 595.96 170.75 615.78C170.75 616.61 170.08 617.28 169.25 617.28H78.21C77.38 617.28 76.71 616.61 76.71 615.78V494.39C76.71 493.56 77.38 492.89 78.21 492.89H78.22ZM99.86 495.89H79.72V614.28H167.76C167.89 595.22 170.45 576.25 175.38 557.84L161.16 554.55C131.46 547.82 107.89 525.27 99.86 495.89ZM460.05 492.89H482.85C483.68 492.89 484.35 493.56 484.35 494.39V615.78C484.35 616.61 483.68 617.28 482.85 617.28H391.81C390.98 617.28 390.31 616.61 390.31 615.78C390.31 595.96 387.64 576.23 382.39 557.13C382.17 556.33 382.64 555.51 383.44 555.29C383.46 555.29 383.48 555.28 383.5 555.27L399.23 551.63C428.28 545.12 451.22 522.86 458.59 494.02C458.76 493.36 459.36 492.9 460.04 492.89H460.05ZM481.35 495.89H461.2C453.17 525.26 429.6 547.82 399.9 554.55L385.68 557.84C390.61 576.25 393.16 595.22 393.3 614.28H481.35V495.89ZM216.74 564.19C216.81 564.19 216.88 564.19 216.95 564.21C242.67 567.8 261.81 589.81 261.8 615.78C261.8 616.61 261.13 617.28 260.3 617.28H209.72C208.89 617.28 208.22 616.61 208.22 615.78C208.22 598.7 210.6 581.7 215.3 565.28C215.48 564.64 216.07 564.19 216.74 564.19ZM258.78 614.28C258.06 590.88 240.92 571.25 217.83 567.38C213.58 582.66 211.36 598.42 211.23 614.28H258.78ZM344.32 564.19C344.99 564.19 345.58 564.63 345.76 565.28C350.46 581.7 352.84 598.7 352.84 615.78C352.84 616.61 352.17 617.28 351.34 617.28H300.76C299.93 617.28 299.26 616.61 299.26 615.78C299.26 589.81 318.39 567.8 344.11 564.21C344.18 564.21 344.25 564.2 344.32 564.2V564.19ZM349.84 614.28C349.71 598.42 347.49 582.66 343.24 567.38C320.15 571.25 303.01 590.88 302.29 614.28H349.84ZM214.28 654.75H260.31C261.14 654.75 261.81 655.42 261.81 656.25V741.72C261.81 742.55 261.14 743.22 260.31 743.22C259.9 743.22 259.51 743.05 259.23 742.76C236.24 718.77 220.2 688.98 212.82 656.58C212.64 655.77 213.14 654.97 213.95 654.78C214.06 654.76 214.17 654.74 214.28 654.74V654.75ZM258.81 657.75H216.17C223.32 687.67 238 715.27 258.81 737.93V657.75ZM300.76 654.75H346.79C347.62 654.75 348.29 655.42 348.29 656.25C348.29 656.36 348.28 656.47 348.25 656.58C340.87 688.98 324.83 718.76 301.84 742.76C301.27 743.36 300.32 743.38 299.72 742.81C299.42 742.53 299.26 742.14 299.26 741.73V656.26C299.26 655.43 299.93 654.76 300.76 654.76V654.75ZM344.9 657.75H302.26V737.93C323.07 715.27 337.75 687.67 344.9 657.75Z" fill="#FFF700"/>
</svg>
